<?xml version="1.0" encoding="iso-8859-1"?>
<!-- Generator: Adobe Illustrator 19.0.1, SVG Export Plug-In . SVG Version: 6.00 Build 0)  -->
<svg version="1.1" id="_x31_0" xmlns="http://www.w3.org/2000/svg" xmlns:xlink="http://www.w3.org/1999/xlink" x="0px" y="0px"
	 viewBox="0 0 128 128" style="enable-background:new 0 0 128 128;" xml:space="preserve">
<g id="pin_21_">
	<path style="fill:#71D8A8;" d="M66.441,4.882c-25.941,0-46.972,21.03-46.972,46.972C19.47,95.71,64,126.499,64,126.499
		s46.971-32.875,46.971-78.306C110.971,22.251,92.383,4.882,66.441,4.882z M65.221,85.5c-20.604,0-37.307-16.703-37.307-37.308
		c0-20.603,16.703-37.307,37.307-37.307c20.604,0,37.307,16.704,37.307,37.307C102.527,68.797,85.824,85.5,65.221,85.5z"/>
	<path style="fill:#46BC91;" d="M64,126.499c0,0,46.971-32.875,46.971-78.306c0-25.941-19.485-44.454-46.972-43.248l0,7.161
		c20.604,0,36.086,15.483,36.086,36.087c0,20.604-15.482,36.087-36.086,36.087V126.499z"/>
	<path style="fill:#EA604E;" d="M64.006,12.181c-19.895,0-36.007,16.124-36.007,36.007c0,19.895,16.111,36.007,36.007,36.007
		c19.883,0,36.007-16.111,36.007-36.007C100.012,28.305,83.889,12.181,64.006,12.181z M79.446,65.275c0,0.659-0.5,1.196-1.111,1.196
		h-8.873c-0.61,0-1.099-0.537-1.099-1.196V54.742H55.059v10.533c0,0.659-0.488,1.196-1.111,1.196h-5.456
		c-0.61,0-1.111-0.537-1.111-1.196V31.917c0-0.659,0.5-1.184,1.111-1.184h5.456c0.622,0,1.111,0.525,1.111,1.184v10.912h13.304
		V31.917c0-0.659,0.488-1.184,1.099-1.184h8.873c0.61,0,1.111,0.525,1.111,1.184V65.275z"/>
	<path style="fill:#1E1E1E;" d="M63.983,128l-0.706-0.517c-0.474-0.348-47.47-35.325-47.47-79.291C15.808,21.619,37.427,0,64,0
		s48.192,21.619,48.192,48.192c0,45.54-47.017,78.974-47.492,79.306L63.983,128z M64,2.441c-25.227,0-45.751,20.524-45.751,45.751
		c0,39.798,39.927,72.252,45.766,76.783c5.874-4.371,45.735-35.576,45.735-76.783C109.751,22.965,89.227,2.441,64,2.441z M64,85.421
		c-20.527,0-37.227-16.701-37.227-37.229c0-20.527,16.7-37.227,37.227-37.227s37.227,16.7,37.227,37.227
		C101.227,68.72,84.527,85.421,64,85.421z M64,13.406c-19.181,0-34.786,15.605-34.786,34.786C29.214,67.374,44.819,82.98,64,82.98
		s34.786-15.606,34.786-34.788C98.786,29.011,83.181,13.406,64,13.406z"/>
</g>
<g id="icon_21_">
	<path style="fill:#64C1F1;" d="M79.905,67.689h-8.425c-1.176,0-2.133-1.082-2.133-2.412v-9.31H58.21v9.31
		c0,1.33-0.957,2.412-2.133,2.412h-4.528c-1.176,0-2.133-1.082-2.133-2.412V31.922c0-1.33,0.957-2.411,2.133-2.411h4.528
		c1.176,0,2.133,1.082,2.133,2.411v9.692h11.138v-9.692c0-1.33,0.957-2.411,2.133-2.411h8.425c1.176,0,2.133,1.082,2.133,2.411
		v33.356C82.038,66.608,81.081,67.689,79.905,67.689z M51.549,30.731v1.221l0,0V30.731z"/>
	<path style="fill:#1E1E1E;" d="M80.038,67.689h-9.53c-1.33,0-2.413-1.082-2.413-2.412v-9.31h-8.191v9.31
		c0,1.33-1.082,2.412-2.413,2.412h-9.53c-1.33,0-2.413-1.082-2.413-2.412V31.922c0-1.33,1.082-2.411,2.413-2.411h9.53
		c1.33,0,2.413,1.082,2.413,2.411v9.692h8.191v-9.692c0-1.33,1.082-2.411,2.413-2.411h9.53c1.33,0,2.413,1.082,2.413,2.411v33.356
		C82.45,66.608,81.368,67.689,80.038,67.689z M57.463,53.527h13.073v11.751l9.501-0.029l-0.029-33.326l-9.501,0.03l0.029,12.103
		H57.463V31.922l-9.472,0.03v33.326l9.501-0.029L57.463,53.527z M47.962,30.731v1.221l0,0V30.731z"/>
</g>
</svg>
