<?xml version="1.0" encoding="iso-8859-1"?>
<!-- Generator: Adobe Illustrator 19.0.1, SVG Export Plug-In . SVG Version: 6.00 Build 0)  -->
<svg version="1.1" xmlns="http://www.w3.org/2000/svg" xmlns:xlink="http://www.w3.org/1999/xlink" x="0px" y="0px"
	 viewBox="0 0 128 128" style="enable-background:new 0 0 128 128;" xml:space="preserve">
<g id="_x31_4">
	<g id="pin_27_">
		<path style="fill:#F969BF;" d="M66.441,4.882c-25.941,0-46.971,21.03-46.971,46.971C19.47,95.71,64,126.498,64,126.498
			s46.971-32.875,46.971-78.306C110.971,22.251,92.383,4.882,66.441,4.882z M65.221,85.5c-20.604,0-37.307-16.703-37.307-37.308
			c0-20.603,16.703-37.307,37.307-37.307c20.604,0,37.306,16.704,37.306,37.307C102.527,68.796,85.824,85.5,65.221,85.5z"/>
		<path style="fill:#E54697;" d="M64,126.498c0,0,46.971-32.875,46.971-78.306c0-25.941-19.485-44.454-46.971-43.247l0,7.161
			c20.604,0,36.086,15.483,36.086,36.087c0,20.604-15.482,36.087-36.086,36.087V126.498z"/>
		<path style="fill:#ECCBF4;" d="M64.006,12.181c-19.895,0-36.006,16.124-36.006,36.006c0,19.895,16.111,36.006,36.006,36.006
			c19.883,0,36.006-16.111,36.006-36.006C100.012,28.305,83.888,12.181,64.006,12.181z M64.006,32.345
			c-1.184,0-2.136-0.964-2.136-2.136c0-1.172,0.952-2.136,2.136-2.136c1.172,0,2.136,0.964,2.136,2.136
			C66.141,31.38,65.177,32.345,64.006,32.345z"/>
		<path style="fill:#1E1E1E;" d="M63.983,128l-0.706-0.517c-0.474-0.348-47.469-35.325-47.469-79.291C15.808,21.618,37.427,0,64,0
			s48.192,21.618,48.192,48.192c0,45.54-47.016,78.974-47.492,79.306L63.983,128z M64,2.441c-25.226,0-45.751,20.524-45.751,45.751
			c0,39.798,39.927,72.252,45.766,76.783c5.874-4.371,45.735-35.577,45.735-76.783C109.751,22.965,89.226,2.441,64,2.441z M64,85.42
			c-20.527,0-37.227-16.7-37.227-37.228c0-20.527,16.7-37.227,37.227-37.227s37.227,16.7,37.227,37.227
			C101.227,68.72,84.527,85.42,64,85.42z M64,13.406c-19.181,0-34.786,15.605-34.786,34.786c0,19.182,15.605,34.787,34.786,34.787
			s34.786-15.605,34.786-34.787C98.786,29.011,83.181,13.406,64,13.406z"/>
	</g>
	<g id="icon_27_">
		<path style="fill:#A7D102;" d="M60.734,36.617v27.304h6.53V36.617H60.734z M76.638,36.617v27.304h6.518V36.617H76.638z
			 M44.843,36.617v27.304h6.518V36.617H44.843z M64.006,20.725l-22.58,14.671v1.221h45.161v-1.221L64.006,20.725z M64.006,32.345
			c-1.184,0-2.136-0.964-2.136-2.136c0-1.172,0.952-2.136,2.136-2.136c1.172,0,2.136,0.964,2.136,2.136
			C66.141,31.38,65.177,32.345,64.006,32.345z M67.264,63.921V36.617h-6.53v27.304H41.425v4.431h45.161v-4.431H67.264z"/>
		<path style="fill:#1E1E1E;" d="M87.801,37.834v-3.106L64,19.264L40.199,34.727v3.106h3.427v24.863h-3.427v6.875h47.602v-6.875
			h-3.427V37.834H87.801z M64,22.175l20.344,13.218h-8.931H43.656L64,22.175z M59.519,62.697h-6.932V37.834h6.932V62.697z
			 M66.039,62.697h-4.079V37.834h4.079V62.697z M75.413,62.697h-6.932V37.834h6.932V62.697z M46.067,37.834h4.079v24.863h-4.079
			V37.834z M85.36,65.138v1.993H42.64v-1.993h0.986h8.961h6.932h8.961h6.932h8.961H85.36z M77.854,62.697V37.834h4.079v24.863
			H77.854z M64.006,25.632c-2.527,0-4.577,2.051-4.577,4.577s2.051,4.577,4.577,4.577c2.514,0,4.577-2.051,4.577-4.577
			S66.52,25.632,64.006,25.632z M64.006,32.345c-1.184,0-2.136-0.964-2.136-2.136c0-1.172,0.952-2.136,2.136-2.136
			c1.172,0,2.136,0.964,2.136,2.136C66.141,31.38,65.177,32.345,64.006,32.345z"/>
	</g>
</g>
<g id="Layer_1">
</g>
</svg>
