<?xml version="1.0" encoding="iso-8859-1"?>
<!-- Generator: Adobe Illustrator 19.0.1, SVG Export Plug-In . SVG Version: 6.00 Build 0)  -->
<svg version="1.1" xmlns="http://www.w3.org/2000/svg" xmlns:xlink="http://www.w3.org/1999/xlink" x="0px" y="0px"
	 viewBox="0 0 128 128" style="enable-background:new 0 0 128 128;" xml:space="preserve">
<g id="_x33_">
	<g id="pin_2_">
		<path style="fill:#EF8581;" d="M66.447,4.883c-25.949,0-46.979,21.03-46.979,46.967c0,43.855,44.538,74.649,44.538,74.649
			s46.967-32.87,46.967-78.311C110.973,22.251,92.383,4.883,66.447,4.883z M65.226,85.5c-20.603,0-37.312-16.709-37.312-37.312
			s16.709-37.3,37.312-37.3s37.3,16.697,37.3,37.3S85.829,85.5,65.226,85.5z"/>
		<path style="fill:#D15E5A;" d="M64,126.498c0,0,46.971-32.875,46.971-78.306c0-25.941-19.485-44.454-46.971-43.247l0,7.161
			c20.604,0,36.086,15.483,36.086,36.087c0,20.604-15.482,36.087-36.086,36.087V126.498z"/>
		<path style="fill:#D3E89A;" d="M64.006,12.181c-19.895,0-36.006,16.124-36.006,36.006c0,19.895,16.111,36.006,36.006,36.006
			c19.883,0,36.006-16.111,36.006-36.006C100.012,28.305,83.888,12.181,64.006,12.181z M88.148,61.065
			c0,1.16-0.952,2.112-2.112,2.112H45.099c-1.16,0-2.112-0.952-2.112-2.112V34.896c0-1.159,0.952-2.112,2.112-2.112h40.937
			c1.16,0,2.112,0.952,2.112,2.112V61.065z"/>
		<path style="fill:#1E1E1E;" d="M63.983,128l-0.706-0.517c-0.474-0.348-47.469-35.324-47.469-79.29C15.808,21.619,37.427,0,64,0
			s48.192,21.619,48.192,48.192c0,45.54-47.016,78.974-47.492,79.306L63.983,128z M64,2.441c-25.226,0-45.751,20.524-45.751,45.751
			c0,39.798,39.927,72.253,45.766,76.784c5.874-4.371,45.735-35.578,45.735-76.784C109.751,22.965,89.226,2.441,64,2.441z M64,85.42
			c-20.527,0-37.227-16.7-37.227-37.228c0-20.527,16.7-37.227,37.227-37.227s37.227,16.7,37.227,37.227
			C101.227,68.72,84.527,85.42,64,85.42z M64,13.406c-19.181,0-34.786,15.605-34.786,34.786c0,19.181,15.605,34.787,34.786,34.787
			s34.786-15.606,34.786-34.787C98.786,29.011,83.181,13.406,64,13.406z"/>
	</g>
	<g id="icon_4_">
		<path style="fill:#5C9E15;" d="M85.573,32.784h-37.02c-1.05,0-1.904,0.952-1.904,2.112v26.169c0,1.16,0.854,2.112,1.904,2.112
			h37.02c1.062,0,1.916-0.952,1.916-2.112V34.896C87.489,33.737,86.635,32.784,85.573,32.784z M74.466,50.739h-5.48v5.48H62.15
			v-5.48h-5.48v-6.835h5.48v-5.48h6.835v5.48h5.48V50.739z"/>
		<path style="fill:#1E1E1E;" d="M86.037,31.565H75.44v-3.121c0-1.837-1.495-3.332-3.331-3.332H59.027
			c-1.838,0-3.333,1.495-3.333,3.332v3.121H45.099c-1.838,0-3.333,1.495-3.333,3.333v26.163c0,1.837,1.495,3.331,3.333,3.331h40.938
			c1.837,0,3.332-1.494,3.332-3.331V34.898C89.368,33.06,87.874,31.565,86.037,31.565z M59.027,27.554h13.082
			c0.491,0,0.89,0.399,0.89,0.89v3.121H58.136v-3.121C58.136,27.953,58.536,27.554,59.027,27.554z M86.927,61.062
			c0,0.49-0.399,0.89-0.89,0.89H45.099c-0.491,0-0.892-0.399-0.892-0.89V34.898c0-0.492,0.4-0.892,0.892-0.892h12.147h0.889h14.864
			h0.89h12.147c0.491,0,0.89,0.4,0.89,0.892V61.062z M70.208,37.203h-9.279v5.474h-5.476v9.281h5.476v5.475h9.279v-5.475h5.476
			v-9.281h-5.476V37.203z M73.242,45.119v4.399h-5.476v5.475h-4.397v-5.475h-5.476v-4.399h5.476v-5.474h4.397v5.474H73.242z"/>
	</g>
</g>
<g id="Layer_1">
</g>
</svg>
