<?xml version="1.0" encoding="iso-8859-1"?>
<!-- Generator: Adobe Illustrator 19.0.1, SVG Export Plug-In . SVG Version: 6.00 Build 0)  -->
<svg version="1.1" xmlns="http://www.w3.org/2000/svg" xmlns:xlink="http://www.w3.org/1999/xlink" x="0px" y="0px"
	 viewBox="0 0 128 128" style="enable-background:new 0 0 128 128;" xml:space="preserve">
<g id="_x35_">
	<g id="pin_4_">
		<path style="fill:#71B3B2;" d="M66.441,4.883c-25.941,0-46.971,21.03-46.971,46.971C19.47,95.71,64,126.498,64,126.498
			s46.971-32.875,46.971-78.306C110.971,22.251,92.383,4.883,66.441,4.883z M65.221,85.5c-20.604,0-37.307-16.703-37.307-37.308
			c0-20.603,16.703-37.307,37.307-37.307c20.604,0,37.306,16.704,37.306,37.307C102.527,68.797,85.824,85.5,65.221,85.5z"/>
		<path style="fill:#67A3A0;" d="M64,126.498c0,0,46.971-32.875,46.971-78.306c0-25.941-19.485-44.454-46.971-43.247l0,7.161
			c20.604,0,36.086,15.483,36.086,36.087c0,20.604-15.482,36.087-36.086,36.087V126.498z"/>
		<circle style="fill:#9DEAFC;" cx="64" cy="48.193" r="36.006"/>
		<path style="fill:#1E1E1E;" d="M63.983,128l-0.706-0.517c-0.474-0.348-47.469-35.324-47.469-79.29C15.808,21.619,37.427,0,64,0
			s48.192,21.619,48.192,48.192c0,45.54-47.016,78.974-47.492,79.306L63.983,128z M64,2.441c-25.226,0-45.751,20.524-45.751,45.751
			c0,39.798,39.927,72.253,45.766,76.784c5.874-4.371,45.735-35.578,45.735-76.784C109.751,22.965,89.226,2.441,64,2.441z M64,85.42
			c-20.527,0-37.227-16.7-37.227-37.228c0-20.527,16.7-37.227,37.227-37.227s37.227,16.7,37.227,37.227
			C101.227,68.72,84.527,85.42,64,85.42z M64,13.406c-19.181,0-34.786,15.605-34.786,34.786c0,19.181,15.605,34.787,34.786,34.787
			s34.786-15.606,34.786-34.787C98.786,29.011,83.181,13.406,64,13.406z"/>
	</g>
	<g id="icon_6_">
		<path style="fill:#E2A900;" d="M83.826,35.327c-0.034-0.119-0.098-0.228-0.189-0.319c-0.28-0.277-0.764-0.277-1.044,0
			l-5.821,5.821c-0.271,0.251-0.8,0.236-1.453,0.018c-0.828-0.282-1.768-0.902-2.582-1.697c-0.805-0.823-1.424-1.763-1.702-2.589
			c-0.228-0.673-0.223-1.216,0.015-1.454l5.819-5.819c0.286-0.289,0.286-0.759,0-1.046c-0.089-0.087-0.199-0.153-0.319-0.186
			c-0.917-0.258-1.869-0.39-2.833-0.39c-2.804,0-5.441,1.093-7.421,3.075c-1.983,1.981-3.076,4.616-3.076,7.421
			c0,0.988,0.137,1.96,0.407,2.895l0.076,0.263l-0.194,0.193L44.135,60.884c-0.912,0.916-1.417,2.134-1.42,3.432
			c0,1.294,0.505,2.513,1.42,3.427c0.916,0.917,2.133,1.42,3.43,1.421c1.299-0.002,2.518-0.507,3.429-1.421l19.565-19.564
			l0.262,0.073c0.94,0.27,1.914,0.405,2.898,0.405c2.803,0,5.439-1.092,7.421-3.072c1.981-1.983,3.074-4.62,3.074-7.424
			C84.214,37.201,84.083,36.249,83.826,35.327z"/>
		<path style="fill:#1E1E1E;" d="M47.567,70.384c-1.627-0.001-3.152-0.634-4.296-1.779c-1.145-1.146-1.776-2.67-1.776-4.29
			c0.002-1.623,0.633-3.147,1.776-4.293l19.068-19.065c-0.224-0.908-0.337-1.847-0.337-2.797c0-3.131,1.219-6.073,3.434-8.285
			c2.211-2.213,5.153-3.432,8.284-3.432c1.072,0,2.136,0.147,3.163,0.435c0.316,0.088,0.61,0.259,0.849,0.496
			c0.762,0.766,0.763,2.006,0.007,2.771l-5.642,5.641c0.012,0.086,0.039,0.215,0.095,0.383c0.218,0.646,0.749,1.44,1.418,2.126
			c0.662,0.645,1.455,1.175,2.104,1.396c0.174,0.058,0.298,0.083,0.377,0.094l5.64-5.64c0.763-0.758,2.002-0.76,2.765-0.004
			c0.237,0.235,0.41,0.527,0.502,0.846L85.003,35c0.286,1.031,0.431,2.094,0.431,3.161c0,3.128-1.218,6.071-3.43,8.286
			c-2.215,2.212-5.156,3.43-8.285,3.43c-0.946,0-1.886-0.113-2.796-0.336L51.856,68.606C50.716,69.75,49.192,70.381,47.567,70.384z
			 M73.719,28.885c-2.478,0-4.807,0.965-6.558,2.716c-1.753,1.752-2.719,4.081-2.719,6.559c0,0.874,0.12,1.734,0.359,2.556
			l0.278,0.96L64.37,42.38L44.998,61.747c-0.683,0.685-1.061,1.599-1.062,2.571c0,0.966,0.378,1.877,1.062,2.562
			c0.684,0.685,1.596,1.063,2.567,1.063c0.97-0.002,1.882-0.379,2.564-1.062l20.071-20.07l0.95,0.266
			c0.836,0.24,1.697,0.36,2.569,0.36c2.477,0,4.806-0.964,6.558-2.715c1.751-1.753,2.716-4.084,2.716-6.56
			c0-0.561-0.051-1.122-0.151-1.675l-5.206,5.205c-0.458,0.425-1.261,0.793-2.701,0.313c-1.012-0.345-2.093-1.048-3.049-1.982
			c-0.962-0.983-1.666-2.066-2.006-3.071c-0.528-1.56-0.033-2.367,0.309-2.708l5.205-5.205
			C74.842,28.937,74.282,28.885,73.719,28.885z"/>
	</g>
</g>
<g id="Layer_1">
</g>
</svg>
