<?xml version="1.0" encoding="iso-8859-1"?>
<!-- Generator: Adobe Illustrator 19.0.1, SVG Export Plug-In . SVG Version: 6.00 Build 0)  -->
<svg version="1.1" xmlns="http://www.w3.org/2000/svg" xmlns:xlink="http://www.w3.org/1999/xlink" x="0px" y="0px"
	 viewBox="0 0 128 128" style="enable-background:new 0 0 128 128;" xml:space="preserve">
<g id="_x31_3">
	<g id="pin_12_">
		<path style="fill:#51CE6E;" d="M66.441,4.882c-25.941,0-46.971,21.03-46.971,46.971C19.47,95.71,64,126.498,64,126.498
			s46.971-32.875,46.971-78.306C110.971,22.251,92.383,4.882,66.441,4.882z M65.221,85.5c-20.604,0-37.307-16.703-37.307-37.308
			c0-20.603,16.703-37.307,37.307-37.307c20.604,0,37.306,16.704,37.306,37.307C102.527,68.796,85.824,85.5,65.221,85.5z"/>
		<path style="fill:#35AE57;" d="M64,126.498c0,0,46.971-32.875,46.971-78.306c0-25.941-19.485-44.454-46.971-43.247l0,7.161
			c20.604,0,36.086,15.483,36.086,36.087c0,20.604-15.482,36.087-36.086,36.087V126.498z"/>
		<circle style="fill:#F9941C;" cx="64" cy="48.192" r="36.006"/>
		<path style="fill:#1E1E1E;" d="M63.983,128l-0.706-0.517c-0.474-0.348-47.469-35.325-47.469-79.291C15.808,21.618,37.427,0,64,0
			s48.192,21.618,48.192,48.192c0,45.54-47.016,78.974-47.492,79.306L63.983,128z M64,2.441c-25.226,0-45.751,20.524-45.751,45.751
			c0,39.798,39.927,72.252,45.766,76.783c5.874-4.371,45.735-35.577,45.735-76.783C109.751,22.965,89.226,2.441,64,2.441z M64,85.42
			c-20.527,0-37.227-16.7-37.227-37.228c0-20.527,16.7-37.227,37.227-37.227s37.227,16.7,37.227,37.227
			C101.227,68.72,84.527,85.42,64,85.42z M64,13.406c-19.181,0-34.786,15.605-34.786,34.786c0,19.182,15.605,34.787,34.786,34.787
			s34.786-15.605,34.786-34.787C98.786,29.011,83.181,13.406,64,13.406z"/>
	</g>
	<g id="icon_12_">
		<path style="fill:#FDFCDA;" d="M65.184,53.191c0,0,0.619-0.012,0.807-0.033c5.344-0.423,9.515-4.943,9.515-10.292
			c0-1.857-0.502-3.682-1.448-5.276L65.545,22.58c-0.154-0.284-0.574-0.274-0.716-0.011l-8.521,15.024
			c-0.948,1.595-1.447,3.417-1.447,5.272C54.861,48.557,59.492,53.191,65.184,53.191z M85.081,68.65L41.42,57.429l2.719-5.051
			l43.662,11.22L85.081,68.65z M41.42,63.597l43.662-11.22l2.719,5.051L44.139,68.65L41.42,63.597z"/>
		<path style="fill:#1E1E1E;" d="M89.613,58.221l-3.906-7.262l-21.091,5.419l-21.103-5.419l-3.906,7.262l8.922,2.295l-8.922,2.295
			l3.906,7.262l21.103-5.419l21.091,5.419l3.906-7.262l-8.922-2.295L89.613,58.221z M84.462,53.802l1.526,2.832l-10.204,2.624
			l-6.274-1.611L84.462,53.802z M44.757,67.228l-1.526-2.832l10.204-2.624l6.274,1.611L44.757,67.228z M85.988,64.397l-1.526,2.832
			L69.51,63.384l-4.894-1.257l-6.274-1.611l-4.907-1.257l-10.204-2.624l1.526-2.832l14.952,3.845l4.907,1.257l6.261,1.611
			l4.907,1.257L85.988,64.397z M65.193,54.411h-0.01c-6.365,0-11.543-5.179-11.543-11.545c0-2.078,0.56-4.116,1.619-5.897
			l8.508-15.002c0.267-0.495,0.813-0.818,1.412-0.819c0.001,0,0.001,0,0.002,0c0.602,0,1.151,0.325,1.435,0.85l8.502,14.989
			c1.047,1.764,1.607,3.804,1.607,5.879c0,5.981-4.674,11.037-10.639,11.509c-0.178,0.019-0.88,0.036-0.88,0.036H65.193z
			 M65.184,24.418L57.37,38.196c-0.847,1.424-1.288,3.032-1.288,4.67c0,3.887,2.447,7.211,5.881,8.515
			c-0.914-0.898-1.48-2.137-1.48-3.494c0-0.89,0.24-1.761,0.691-2.517l4.243-7.482l4.233,7.46c0.46,0.778,0.7,1.639,0.7,2.539
			c0,1.172-0.41,2.255-1.1,3.106c2.997-1.514,5.036-4.619,5.036-8.128c0-1.637-0.442-3.246-1.278-4.653L65.184,24.418z
			 M65.417,42.835l-2.134,3.763c-0.241,0.403-0.36,0.84-0.36,1.29c0,1.342,1.101,2.459,2.457,2.49
			c0.081-0.001,0.205-0.008,0.347-0.018c1.246-0.155,2.181-1.213,2.181-2.472c0-0.457-0.125-0.9-0.371-1.315L65.417,42.835z"/>
	</g>
</g>
<g id="Layer_1">
</g>
</svg>
