<?xml version="1.0" encoding="iso-8859-1"?>
<!-- Generator: Adobe Illustrator 19.0.1, SVG Export Plug-In . SVG Version: 6.00 Build 0)  -->
<svg version="1.1" xmlns="http://www.w3.org/2000/svg" xmlns:xlink="http://www.w3.org/1999/xlink" x="0px" y="0px"
	 viewBox="0 0 128 128" style="enable-background:new 0 0 128 128;" xml:space="preserve">
<g id="_x34_">
	<g id="pin_9_">
		<path style="fill:#EFC749;" d="M66.441,4.883c-25.941,0-46.971,21.03-46.971,46.971C19.47,95.71,64,126.498,64,126.498
			s46.971-32.875,46.971-78.306C110.971,22.251,92.383,4.883,66.441,4.883z M65.221,85.5c-20.604,0-37.307-16.703-37.307-37.308
			c0-20.603,16.703-37.307,37.307-37.307c20.604,0,37.306,16.704,37.306,37.307C102.527,68.797,85.824,85.5,65.221,85.5z"/>
		<path style="fill:#F2A325;" d="M64,126.498c0,0,46.971-32.875,46.971-78.306c0-25.941-19.485-44.454-46.971-43.247l0,7.161
			c20.604,0,36.086,15.483,36.086,36.087c0,20.604-15.482,36.087-36.086,36.087V126.498z"/>
		<circle style="fill:#F6F3DE;" cx="64" cy="48.193" r="36.006"/>
		<path style="fill:#1E1E1E;" d="M63.983,128l-0.706-0.517c-0.474-0.348-47.469-35.324-47.469-79.29C15.808,21.619,37.427,0,64,0
			s48.192,21.619,48.192,48.192c0,45.54-47.016,78.974-47.492,79.306L63.983,128z M64,2.441c-25.226,0-45.751,20.524-45.751,45.751
			c0,39.798,39.927,72.253,45.766,76.784c5.874-4.371,45.735-35.578,45.735-76.784C109.751,22.965,89.226,2.441,64,2.441z M64,85.42
			c-20.527,0-37.227-16.7-37.227-37.228c0-20.527,16.7-37.227,37.227-37.227s37.227,16.7,37.227,37.227
			C101.227,68.72,84.527,85.42,64,85.42z M64,13.406c-19.181,0-34.786,15.605-34.786,34.786c0,19.181,15.605,34.787,34.786,34.787
			s34.786-15.606,34.786-34.787C98.786,29.011,83.181,13.406,64,13.406z"/>
	</g>
	<g id="icon_8_">
		<path id="Path_2_" style="fill:#DD6958;" d="M80.313,28.522l-11.175,7.441l-20.83-4.922c-0.186-0.05-0.495,0.007-0.675,0.187
			l-2.627,2.625c-0.276,0.277-0.276,0.731,0.001,1.01l0.109,0.093l17.373,8.908l-8.955,8.955l-6.237-1.523
			c-0.37-0.115-0.57-0.026-0.758,0.164c-0.071,0.068-2.403,2.394-2.468,2.46c-0.28,0.284-0.28,0.736-0.003,1.015
			c0.034,0.033,0.071,0.064,0.12,0.095l0.149,0.103l7.302,4.896l4.731,7.122h0.004l0.139,0.204c0.027,0.042,0.06,0.083,0.097,0.12
			c0.269,0.27,0.737,0.27,1.007,0l2.466-2.472c0.191-0.191,0.257-0.47,0.174-0.725l-1.534-6.269l8.955-8.958l8.927,17.396
			c0.001,0.003,0.046,0.059,0.076,0.087c0.273,0.27,0.74,0.27,1.007,0c1.704-1.706,2.355-2.355,2.647-2.603l-0.021-0.022
			c0.18-0.18,0.249-0.444,0.183-0.69l-4.919-20.815l8.059-10.266C85.253,29.926,82.653,27.098,80.313,28.522z"/>
		<path style="fill:#062E49;" d="M57.113,68.897c-0.002,0-0.004,0-0.005,0c-0.495-0.001-0.976-0.193-1.327-0.527H55.72l-4.962-7.465
			l-7.26-4.871c-0.092-0.058-0.184-0.134-0.269-0.215c-0.772-0.775-0.772-2.002-0.026-2.758l0.667-0.665
			c0.719-0.718,1.771-1.766,1.818-1.812c0.527-0.528,1.213-0.693,1.973-0.455l5.497,1.34l7.285-7.285l-16.224-8.392
			c-0.826-0.824-0.827-2.049-0.077-2.802l2.631-2.628c0.472-0.473,1.219-0.676,1.858-0.501l19.407,5.65l11.642-8.034
			c1.558-0.951,3.439-0.687,4.677,0.66c1.237,1.346,1.345,3.242,0.267,4.718l-8.581,10.7l5.626,19.32
			c0.069,0.254,0.087,0.513,0.057,0.762l0.346,0.377l-0.945,0.844c-0.259,0.22-0.976,0.936-2.576,2.536
			c-0.745,0.75-1.971,0.753-2.728,0.005l-0.143-0.142l-0.167-0.267l-8.155-15.895l-7.285,7.288l1.372,5.601
			c0.199,0.611,0.018,1.363-0.497,1.878l-2.465,2.472C58.122,68.694,57.625,68.897,57.113,68.897z M45.365,54.352l7.156,4.798
			l4.666,7.025l1.831-1.836l-1.646-6.709l10.625-10.629l9.323,18.17c0.969-0.968,1.511-1.508,1.853-1.834l0.066-0.069l-5.897-20.248
			l9.341-11.647c0.424-0.583,0.219-1.207-0.125-1.582c-0.341-0.37-0.933-0.622-1.586-0.243l-12.505,8.633l-20.186-5.878l-1.92,1.918
			l18.175,9.319L53.913,54.168l-6.717-1.641c-0.353,0.352-1.07,1.067-1.603,1.599L45.365,54.352z"/>
	</g>
</g>
<g id="Layer_1">
</g>
</svg>
