<?xml version="1.0" encoding="iso-8859-1"?>
<!-- Generator: Adobe Illustrator 19.0.1, SVG Export Plug-In . SVG Version: 6.00 Build 0)  -->
<svg version="1.1" xmlns="http://www.w3.org/2000/svg" xmlns:xlink="http://www.w3.org/1999/xlink" x="0px" y="0px"
	 viewBox="0 0 128 128" style="enable-background:new 0 0 128 128;" xml:space="preserve">
<g id="_x31_">
	<g id="pin">
		<path style="fill:#EFC749;" d="M66.441,4.883c-25.941,0-46.971,21.03-46.971,46.971C19.47,95.71,64,126.498,64,126.498
			s46.971-32.875,46.971-78.306C110.971,22.251,92.383,4.883,66.441,4.883z M65.221,85.5c-20.604,0-37.307-16.703-37.307-37.308
			c0-20.603,16.703-37.307,37.307-37.307c20.604,0,37.306,16.704,37.306,37.307C102.527,68.797,85.824,85.5,65.221,85.5z"/>
		<path style="fill:#DDB545;" d="M64,126.498c0,0,46.971-32.875,46.971-78.306c0-25.941-19.485-44.454-46.971-43.247l0,7.161
			c20.604,0,36.086,15.483,36.086,36.087c0,20.604-15.482,36.087-36.086,36.087V126.498z"/>
		<path style="fill:#FFF8D9;" d="M64.006,12.181c-19.895,0-36.006,16.124-36.006,36.006c0,19.895,16.111,36.006,36.006,36.006
			c19.883,0,36.006-16.111,36.006-36.006C100.012,28.305,83.888,12.181,64.006,12.181z M70.572,50.129
			c-2.746,4.687-7.384,7.067-10.35,5.322c-2.954-1.745-3.112-6.945-0.354-11.632c2.758-4.687,7.384-7.067,10.35-5.322
			C73.172,40.23,73.331,45.442,70.572,50.129z"/>
		<path style="fill:#1E1E1E;" d="M63.983,128l-0.705-0.517c-0.475-0.348-47.47-35.324-47.47-79.29C15.808,21.619,37.427,0,64,0
			s48.192,21.619,48.192,48.192c0,45.54-47.017,78.974-47.492,79.306L63.983,128z M64,2.441c-25.227,0-45.751,20.524-45.751,45.751
			c0,39.798,39.927,72.253,45.766,76.784c5.874-4.371,45.735-35.578,45.735-76.784C109.751,22.965,89.227,2.441,64,2.441z M64,85.42
			c-20.527,0-37.227-16.7-37.227-37.228c0-20.527,16.7-37.227,37.227-37.227s37.227,16.7,37.227,37.227
			C101.227,68.72,84.527,85.42,64,85.42z M64,13.406c-19.181,0-34.786,15.605-34.786,34.786c0,19.181,15.605,34.787,34.786,34.787
			s34.786-15.606,34.786-34.787C98.786,29.011,83.181,13.406,64,13.406z"/>
	</g>
	<g id="icon">
		<path style="fill:#A56905;" d="M51.458,27.975v35.421c0,2.758,2.002,5.004,4.443,5.004H75.43c2.441,0,4.443-2.246,4.443-5.004
			V27.975H51.458z M70.572,50.129c-2.746,4.687-7.384,7.067-10.35,5.322c-2.954-1.745-3.112-6.945-0.354-11.632
			c2.758-4.687,7.384-7.067,10.35-5.322C73.172,40.23,73.331,45.442,70.572,50.129z"/>
		<path style="fill:#1E1E1E;" d="M74.858,69.624h-22.05c-3.436,0-6.232-2.796-6.232-6.232V26.761H81.09v5.68
			c7.229,0.073,13.088,6.363,13.088,14.083c0,7.72-5.859,14.009-13.088,14.082v2.786C81.09,66.828,78.294,69.624,74.858,69.624z
			 M49.017,29.202v34.191c0,2.09,1.701,3.79,3.791,3.79h22.05c2.09,0,3.791-1.7,3.791-3.79V29.202H49.017z M81.09,34.882v23.283
			c5.882-0.074,10.647-5.268,10.647-11.641S86.972,34.957,81.09,34.882z M70.833,37.441c-1.806-1.063-4.088-0.985-6.429,0.22
			c-2.157,1.11-4.144,3.076-5.593,5.538c-3.147,5.344-2.797,11.188,0.797,13.305c0.859,0.505,1.814,0.746,2.814,0.746
			c3.183,0,6.813-2.437,9.208-6.504C74.776,45.401,74.427,39.557,70.833,37.441z M60.915,44.437
			c1.218-2.069,2.854-3.705,4.606-4.606c0.542-0.279,1.066-0.463,1.567-0.573c-1.243,1.36-2.518,3.61-2.918,7.305
			c-0.513,4.729-2.77,6.74-3.835,7.438C58.539,52.288,58.735,48.139,60.915,44.437z M69.526,49.507
			c-1.677,2.85-4.156,4.798-6.291,5.21c1.398-1.453,2.93-3.903,3.362-7.89c0.503-4.643,2.517-6.359,3.472-6.922
			C71.907,41.595,71.721,45.779,69.526,49.507z"/>
	</g>
</g>
<g id="Layer_1">
</g>
</svg>
