<?xml version="1.0" encoding="iso-8859-1"?>
<!-- Generator: Adobe Illustrator 19.0.1, SVG Export Plug-In . SVG Version: 6.00 Build 0)  -->
<svg version="1.1" id="_x31_5_1_" xmlns="http://www.w3.org/2000/svg" xmlns:xlink="http://www.w3.org/1999/xlink" x="0px" y="0px"
	 viewBox="0 0 128 128" style="enable-background:new 0 0 128 128;" xml:space="preserve">
<g id="pin_14_">
	<path style="fill:#C0DD19;" d="M66.441,4.882c-25.941,0-46.971,21.03-46.971,46.971C19.47,95.71,64,126.498,64,126.498
		s46.971-32.875,46.971-78.306C110.971,22.251,92.383,4.882,66.441,4.882z M65.221,85.5c-20.604,0-37.307-16.703-37.307-37.308
		c0-20.603,16.703-37.307,37.307-37.307c20.604,0,37.306,16.704,37.306,37.307C102.527,68.796,85.824,85.5,65.221,85.5z"/>
	<path style="fill:#A6D000;" d="M64,126.498c0,0,46.971-32.875,46.971-78.306c0-25.941-19.485-44.454-46.971-43.247l0,7.161
		c20.604,0,36.086,15.483,36.086,36.087c0,20.604-15.482,36.087-36.086,36.087V126.498z"/>
	<circle style="fill:#F6F7CC;" cx="64" cy="48.192" r="36.006"/>
	<path style="fill:#1E1E1E;" d="M63.983,128l-0.706-0.517c-0.474-0.348-47.469-35.325-47.469-79.291C15.808,21.618,37.427,0,64,0
		s48.192,21.618,48.192,48.192c0,45.54-47.016,78.974-47.492,79.306L63.983,128z M64,2.441c-25.226,0-45.751,20.524-45.751,45.751
		c0,39.798,39.927,72.252,45.766,76.783c5.874-4.371,45.735-35.577,45.735-76.783C109.751,22.965,89.226,2.441,64,2.441z M64,85.42
		c-20.527,0-37.227-16.7-37.227-37.228c0-20.527,16.7-37.227,37.227-37.227s37.227,16.7,37.227,37.227
		C101.227,68.72,84.527,85.42,64,85.42z M64,13.406c-19.181,0-34.786,15.605-34.786,34.786c0,19.182,15.605,34.787,34.786,34.787
		s34.786-15.605,34.786-34.787C98.786,29.011,83.181,13.406,64,13.406z"/>
</g>
<g id="icon_14_">
	<path id="_x3C_Path_x3E__1_" style="fill:#6CB3B8;" d="M92.194,55.216l-4.458-23.787c-0.205-1.094-1.225-1.898-2.358-1.802
		c0,0-0.001,0-0.002,0l-47.801,8.952c-1.182,0.222-1.993,1.41-1.77,2.596l4.465,23.778c0.105,0.559,0.445,1.073,0.931,1.409
		c0.381,0.262,0.83,0.402,1.273,0.402c0.129,0,0.257-0.012,0.384-0.036l47.565-8.924c0.56-0.105,1.074-0.446,1.41-0.934
		C92.168,56.379,92.3,55.777,92.194,55.216z M85.379,32.099l1.69,9.017c-2.025,0.544-3.808,0.399-5.306-0.448
		c-2.959-1.671-4.218-5.604-4.588-7.031L85.379,32.099z M46.989,39.297c0.102,1.814-0.004,5.227-1.915,7.487
		c-1.196,1.413-2.982,2.177-5.301,2.292l-1.529-8.14L46.989,39.297z M42.63,64.288l-1.649-8.784
		c1.689-0.148,5.399-0.196,7.837,1.825c1.442,1.195,2.224,3.001,2.347,5.357L42.63,64.288z M81.381,57.017
		c-0.48-1.966-0.311-3.697,0.527-5.15c1.468-2.551,4.615-3.81,6.363-4.336l1.483,7.915L81.381,57.017z"/>
	<path id="_x3C_Path_x3E_" style="fill:#1E1E1E;" d="M92.194,55.216l-4.458-23.787c-0.205-1.094-1.225-1.898-2.358-1.802
		c0,0-0.001,0-0.002,0l-47.801,8.952c-1.182,0.222-1.993,1.41-1.77,2.596l4.465,23.778c0.105,0.559,0.445,1.073,0.931,1.409
		c0.381,0.262,0.83,0.402,1.273,0.402c0.129,0,0.257-0.012,0.384-0.036l47.565-8.924c0.56-0.105,1.074-0.446,1.41-0.934
		C92.168,56.379,92.3,55.777,92.194,55.216z M78.981,57.467l-25.399,4.766c-0.216-2.908-1.287-5.19-3.206-6.782
		c-3.248-2.693-7.926-2.552-9.848-2.356l-0.3-1.597c2.868-0.207,5.127-1.26,6.719-3.147c2.575-3.055,2.619-7.419,2.463-9.507
		l25.359-4.755c0.394,1.611,1.872,6.483,5.781,8.699c1.296,0.735,2.714,1.103,4.242,1.103c0.872,0,1.784-0.131,2.727-0.371
		l0.299,1.597c-2.045,0.581-6.048,2.109-8.019,5.521C78.647,52.629,78.383,54.924,78.981,57.467z M85.379,32.099l1.69,9.017
		c-2.025,0.544-3.808,0.399-5.306-0.448c-2.959-1.671-4.218-5.604-4.588-7.031L85.379,32.099z M46.989,39.297
		c0.102,1.814-0.004,5.227-1.915,7.487c-1.196,1.413-2.982,2.177-5.301,2.292l-1.529-8.14L46.989,39.297z M42.63,64.288
		l-1.649-8.784c1.689-0.148,5.399-0.196,7.837,1.825c1.442,1.195,2.224,3.001,2.347,5.357L42.63,64.288z M81.381,57.017
		c-0.48-1.966-0.311-3.697,0.527-5.15c1.468-2.551,4.615-3.81,6.363-4.336l1.483,7.915L81.381,57.017z M62.281,38.291
		c0.3,0.004,0.565,0.22,0.623,0.527l0.278,1.498c0.719-0.078,1.42-0.057,2.028,0.075c0.568,0.128,1.091,0.381,1.569,0.769
		c0.375,0.293,0.68,0.61,0.918,0.95c0.238,0.34,0.391,0.662,0.448,0.971c0.064,0.343-0.009,0.667-0.213,0.964
		c-0.204,0.298-0.486,0.477-0.843,0.544c-0.673,0.126-1.173-0.156-1.509-0.847c-0.388-0.816-1.039-1.282-1.957-1.402
		c-0.021,0-0.04-0.001-0.061-0.004l0.801,4.28l0.06,0.007c0.895,0.075,1.612,0.165,2.153,0.263c0.541,0.098,1.049,0.291,1.516,0.58
		c0.497,0.298,0.906,0.692,1.235,1.174c0.328,0.483,0.555,1.033,0.673,1.658c0.147,0.784,0.097,1.553-0.142,2.306
		c-0.24,0.753-0.676,1.411-1.309,1.978c-0.695,0.578-1.557,0.998-2.459,1.249l0.281,1.498c0.066,0.351-0.165,0.682-0.516,0.747
		c-0.35,0.066-0.685-0.158-0.751-0.509l-0.278-1.494c-0.766,0.077-1.521,0.025-2.195-0.149c-0.655-0.176-1.225-0.439-1.708-0.793
		c-0.482-0.354-0.863-0.746-1.142-1.174c-0.279-0.428-0.457-0.866-0.541-1.313c-0.062-0.33,0.013-0.647,0.221-0.961
		c0.208-0.313,0.498-0.508,0.882-0.58c0.309-0.058,0.589-0.034,0.829,0.071c0.24,0.104,0.421,0.281,0.552,0.527
		c0.291,0.529,0.539,0.926,0.733,1.199c0.193,0.273,0.448,0.509,0.772,0.705c0.325,0.196,0.704,0.336,1.188,0.381
		c0,0,0.015,0,0.018,0l-0.904-4.814c-0.961-0.082-1.782-0.224-2.455-0.42c-0.677-0.197-1.257-0.544-1.751-1.05
		c-0.493-0.505-0.826-1.21-0.996-2.117c-0.221-1.182-0.027-2.224,0.584-3.121c0.63-0.92,1.772-1.567,3.007-1.911l-0.281-1.498
		c-0.066-0.351,0.162-0.689,0.512-0.754v0.004C62.194,38.296,62.239,38.289,62.281,38.291L62.281,38.291z M62.288,42.546
		c-0.47,0.142-0.942,0.59-1.21,0.929c-0.27,0.343-0.349,0.8-0.242,1.37c0.102,0.543,0.329,0.92,0.683,1.142
		c0.352,0.22,0.856,0.391,1.509,0.502L62.288,42.546z M64.868,49.303l0.847,4.533c0.019-0.004,0.039-0.007,0.057-0.014
		c0.668-0.268,1.149-0.645,1.448-1.135c0.299-0.49,0.4-1.009,0.295-1.565c-0.112-0.598-0.386-1.03-0.815-1.288
		c-0.429-0.257-1.019-0.434-1.776-0.527L64.868,49.303z"/>
</g>
</svg>
