<?xml version="1.0" encoding="iso-8859-1"?>
<!-- Generator: Adobe Illustrator 19.0.1, SVG Export Plug-In . SVG Version: 6.00 Build 0)  -->
<svg version="1.1" xmlns="http://www.w3.org/2000/svg" xmlns:xlink="http://www.w3.org/1999/xlink" x="0px" y="0px"
	 viewBox="0 0 128 128" style="enable-background:new 0 0 128 128;" xml:space="preserve">
<g id="_x37_">
	<g id="pin_6_">
		<path style="fill:#BA68D8;" d="M66.441,4.883c-25.941,0-46.971,21.03-46.971,46.971C19.47,95.71,64,126.498,64,126.498
			s46.971-32.875,46.971-78.306C110.971,22.251,92.383,4.883,66.441,4.883z M65.221,85.5c-20.604,0-37.307-16.703-37.307-37.308
			c0-20.603,16.703-37.307,37.307-37.307c20.604,0,37.306,16.704,37.306,37.307C102.527,68.797,85.824,85.5,65.221,85.5z"/>
		<path style="fill:#A74AC6;" d="M64,126.498c0,0,46.971-32.875,46.971-78.306c0-25.941-19.485-44.454-46.971-43.247l0,7.161
			c20.604,0,36.086,15.483,36.086,36.087c0,20.604-15.482,36.087-36.086,36.087V126.498z"/>
		<circle style="fill:#CBF4F7;" cx="64" cy="48.193" r="36.006"/>
		<path style="fill:#1E1E1E;" d="M63.983,128l-0.705-0.517c-0.475-0.348-47.47-35.325-47.47-79.29C15.808,21.619,37.427,0,64,0
			s48.192,21.619,48.192,48.192c0,45.54-47.017,78.973-47.492,79.306L63.983,128z M64,2.441c-25.227,0-45.751,20.524-45.751,45.751
			c0,39.797,39.927,72.252,45.766,76.782c5.874-4.371,45.735-35.576,45.735-76.782C109.751,22.965,89.227,2.441,64,2.441z
			 M64,85.421c-20.527,0-37.227-16.7-37.227-37.229c0-20.527,16.7-37.227,37.227-37.227s37.227,16.7,37.227,37.227
			C101.227,68.72,84.527,85.421,64,85.421z M64,13.406c-19.181,0-34.786,15.605-34.786,34.786C29.214,67.374,44.819,82.98,64,82.98
			s34.786-15.606,34.786-34.788C98.786,29.011,83.181,13.406,64,13.406z"/>
	</g>
	<g id="icon_2_">
		<path style="fill:#F74D6E;" d="M75.479,28.634c-2.246,0-4.467,0.598-6.408,1.721c-1.318,0.781-2.478,1.77-3.454,2.966
			l-0.403,0.488l-0.391-0.488c-0.977-1.196-2.136-2.185-3.454-2.966c-1.941-1.123-4.15-1.721-6.408-1.721
			c-6.896,0-12.462,5.554-12.706,12.645c-0.11,3.564,1.025,7.165,3.393,10.729c1.867,2.807,4.492,5.59,7.799,8.275
			c5.651,4.577,11.363,7.274,11.424,7.311l0.342,0.159l0.354-0.159c0.232-0.11,5.81-2.771,11.424-7.311
			c3.308-2.685,5.932-5.468,7.799-8.275c2.368-3.564,3.503-7.165,3.393-10.729C87.941,34.188,82.375,28.634,75.479,28.634z
			 M54.156,34.456c-3.491,0-6.347,2.844-6.347,6.347c0,0.488-0.391,0.891-0.879,0.891c-0.5,0-0.891-0.403-0.891-0.891
			c0-4.479,3.637-8.129,8.117-8.129c0.488,0,0.891,0.403,0.891,0.891C55.047,34.054,54.644,34.456,54.156,34.456z"/>
		<path style="fill:#1E1E1E;" d="M65.221,68.853l-0.809-0.412c-1.888-0.961-6.806-3.626-11.681-7.578
			c-3.552-2.883-6.358-5.861-8.339-8.851c-2.495-3.764-3.697-7.57-3.574-11.312c0.117-3.554,1.526-6.868,3.965-9.334
			c2.473-2.5,5.769-3.876,9.282-3.876c2.356,0,4.669,0.625,6.69,1.806c1.803,1.052,3.337,2.523,4.465,4.273
			c1.127-1.749,2.662-3.22,4.466-4.274c2.02-1.181,4.333-1.806,6.688-1.806c3.513,0,6.81,1.377,9.282,3.876
			c2.441,2.467,3.849,5.782,3.967,9.333c0.123,3.743-1.08,7.549-3.575,11.313l0,0c-1.986,2.996-4.792,5.973-8.338,8.85
			c-4.872,3.951-9.794,6.617-11.683,7.579L65.221,68.853z M54.065,29.93c-2.856,0-5.537,1.119-7.547,3.152
			c-2.005,2.028-3.163,4.761-3.261,7.698c-0.106,3.225,0.96,6.55,3.169,9.884c1.845,2.784,4.484,5.578,7.843,8.304
			c4.454,3.612,8.949,6.108,10.95,7.145c2.004-1.039,6.501-3.535,10.953-7.146c3.354-2.721,5.991-5.514,7.841-8.304l0,0
			c2.209-3.333,3.276-6.658,3.17-9.884c-0.097-2.935-1.256-5.668-3.262-7.697c-2.01-2.032-4.691-3.152-7.547-3.152
			c-1.923,0-3.809,0.509-5.456,1.473c-1.602,0.935-2.943,2.272-3.879,3.868l-1.818,3.089l-1.818-3.088
			c-0.937-1.597-2.278-2.934-3.879-3.868C57.876,30.439,55.989,29.93,54.065,29.93z"/>
	</g>
</g>
<g id="Layer_1">
</g>
</svg>
